<svg xmlns="http://www.w3.org/2000/svg" viewBox="0 0 24 24">
  <rect width="24" height="24" rx="4" fill="currentColor"/>
  <g fill="none" stroke="#ffffff" stroke-width="1.5" stroke-linecap="round" stroke-linejoin="round">
    <path d="M12 20.5V12"/>
    <path d="M12 12c-1-3-3.5-4.5-6-5.5.5 2.5 1.5 4.5 3.2 5.8"/>
    <path d="M12 12c1-3 3.5-4.5 6-5.5-.5 2.5-1.5 4.5-3.2 5.8"/>
    <path d="M12 8.5c-.5-2.2-1-4-1-5.5 1 1.3 1.5 3 1 5.5"/>
    <path d="M9.5 9.8c-1-.5-1.8-1.3-2.3-2.3"/>
    <path d="M14.5 9.8c1-.5 1.8-1.3 2.3-2.3"/>
  </g>
</svg>
