<svg xmlns="http://www.w3.org/2000/svg" viewBox="0 0 24 24" fill="none" stroke="currentColor" stroke-width="1.5" stroke-linecap="round" stroke-linejoin="round">
  <!-- Breadfruit (ulu) leaf: lobed form with rounded divisions -->
  <path d="M12 22V12"/>
  <path d="M12 12c-1-3-3.5-5-6.5-6.5 0.5 3 1.5 5 3.5 6.5"/>
  <path d="M12 12c1-3 3.5-5 6.5-6.5-0.5 3-1.5 5-3.5 6.5"/>
  <path d="M12 8c-0.5-2.5-1-4.5-1-6.5 1 1.5 1.5 3.5 1 6.5"/>
  <!-- Leaf veins -->
  <path d="M9 9.5c-1-0.5-2-1.5-2.5-2.5"/>
  <path d="M15 9.5c1-0.5 2-1.5 2.5-2.5"/>
</svg>
