<svg xmlns="http://www.w3.org/2000/svg" viewBox="0 0 24 24">
  <rect width="24" height="24" rx="4" fill="currentColor"/>
  <g fill="none" stroke="#ffffff" stroke-width="1.5" stroke-linecap="round" stroke-linejoin="round">
    <path d="M12 19.5c-3 0-5-2-5-5 0-2 1.2-3.8 2.5-5.5.8-1.1 1.5-2.5 1.5-4 .5 1.2 1.2 2.5 2 3.3 1.2 1.2 2 3 2 4.7 0 1.2-.4 2.5-1.2 3.3"/>
    <path d="M12 19.5c1.2 0 2-.8 2-2 0-1.2-.8-2-1.2-2.8-.3-.6-.4-1.2-.4-2 0 1.2-.4 2-.8 2.8s-1.2 1.6-1.2 2.4c0 1 .6 1.6 1.6 1.6z"/>
  </g>
</svg>
