<svg xmlns="http://www.w3.org/2000/svg" viewBox="0 0 24 24" fill="none" stroke="currentColor" stroke-width="1.5" stroke-linecap="round" stroke-linejoin="round">
  <!-- Hapu'u fern fiddlehead unfurling -->
  <path d="M8 21c0-4 0.5-7 2-9.5"/>
  <path d="M10 11.5c1-2 2.5-3.5 4-4.5 1.5-1 2.5-2 2.5-3.5 0-1-0.5-1.8-1.5-2-1-0.2-2 0.3-2.8 1.2-0.8 1-1.2 2.2-1 3.5"/>
  <!-- Inner curl -->
  <path d="M11.2 6.2c0.5-0.8 1.2-1.2 2-1 0.5 0.1 0.7 0.5 0.5 1-0.3 0.5-0.8 0.8-1.5 1"/>
  <!-- Stem -->
  <path d="M8 21c-0.5-1.5-0.5-3 0-4.5"/>
</svg>
