<svg xmlns="http://www.w3.org/2000/svg" viewBox="0 0 24 24">
  <rect width="24" height="24" rx="4" fill="currentColor"/>
  <g fill="none" stroke="#ffffff" stroke-width="1.5" stroke-linecap="round" stroke-linejoin="round">
    <path d="M9 19.5c0-3.5.5-6 2-8.5"/>
    <path d="M11 11c1-2 2.5-3.2 3.8-4 1.3-.8 2.2-1.8 2.2-3 0-.8-.4-1.5-1.2-1.7-.8-.2-1.6.2-2.3 1-.7.8-1 1.8-.8 3"/>
    <path d="M12.7 6.3c.4-.7 1-.9 1.6-.8.4.1.6.4.4.8-.2.4-.7.7-1.2.8"/>
    <path d="M9 19.5c-.5-1.3-.5-2.6 0-4"/>
  </g>
</svg>
