<?xml version="1.0" encoding="UTF-8"?>
<svg xmlns="http://www.w3.org/2000/svg" viewBox="0 0 1200 900" width="2400" height="1800">
<defs>
  <pattern id="waterGrid" x="0" y="0" width="6" height="6" patternUnits="userSpaceOnUse">
    <circle cx="3" cy="3" r="0.4" fill="#78C4D4" opacity="0.5"/>
  </pattern>
  <pattern id="sandStipple" x="0" y="0" width="4" height="4" patternUnits="userSpaceOnUse">
    <circle cx="1" cy="1" r="0.3" fill="#D4C9A8" opacity="0.3"/>
    <circle cx="3" cy="3" r="0.2" fill="#C8BD9F" opacity="0.25"/>
  </pattern>
  <linearGradient id="waterGrad" x1="0" y1="0" x2="0" y2="1">
    <stop offset="0" stop-color="#B8E4EC" stop-opacity="0.35"/>
    <stop offset="0.4" stop-color="#A0D9E2" stop-opacity="0.5"/>
    <stop offset="1" stop-color="#88CCD8" stop-opacity="0.65"/>
  </linearGradient>
  <linearGradient id="fadeRight" x1="0" y1="0" x2="1" y2="0">
    <stop offset="0.88" stop-color="white" stop-opacity="0"/>
    <stop offset="1" stop-color="#FAFAF7"/>
  </linearGradient>
  <linearGradient id="fadeTop" x1="0" y1="1" x2="0" y2="0">
    <stop offset="0.88" stop-color="white" stop-opacity="0"/>
    <stop offset="1" stop-color="#FAFAF7"/>
  </linearGradient>
  <linearGradient id="fadeLeft" x1="1" y1="0" x2="0" y2="0">
    <stop offset="0.9" stop-color="white" stop-opacity="0"/>
    <stop offset="1" stop-color="#FAFAF7"/>
  </linearGradient>
  <linearGradient id="fadeBottom" x1="0" y1="0" x2="0" y2="1">
    <stop offset="0.9" stop-color="white" stop-opacity="0"/>
    <stop offset="1" stop-color="#FAFAF7"/>
  </linearGradient>
</defs>

<!-- BACKGROUND -->
<rect width="1200" height="900" fill="#FAFAF7"/>

<!-- ======== OCEAN ======== -->
<path d="M 0 900 L 0 660 Q 100 650, 200 655 Q 350 645, 500 652 Q 650 648, 800 654 Q 950 650, 1100 656 L 1200 653 L 1200 900 Z" fill="url(#waterGrad)"/>
<path d="M 0 900 L 0 660 Q 100 650, 200 655 Q 350 645, 500 652 Q 650 648, 800 654 Q 950 650, 1100 656 L 1200 653 L 1200 900 Z" fill="url(#waterGrid)" opacity="0.6"/>
<path d="M 0 700 Q 200 690, 400 695 Q 600 688, 800 693 Q 1000 689, 1200 694" fill="none" stroke="#78C4D4" stroke-width="0.15" stroke-dasharray="3,2" opacity="0.5"/>
<path d="M 0 740 Q 200 733, 400 736 Q 600 731, 800 735 Q 1000 732, 1200 736" fill="none" stroke="#78C4D4" stroke-width="0.15" stroke-dasharray="3,2" opacity="0.4"/>
<path d="M 0 780 Q 200 774, 400 777 Q 600 772, 800 776 Q 1000 773, 1200 777" fill="none" stroke="#78C4D4" stroke-width="0.12" stroke-dasharray="2,3" opacity="0.3"/>
<path d="M 0 830 Q 300 824, 600 827 Q 900 822, 1200 826" fill="none" stroke="#78C4D4" stroke-width="0.1" stroke-dasharray="2,4" opacity="0.2"/>

<!-- ======== BEACH ======== -->
<path d="M 0 660 Q 100 650, 200 655 Q 350 645, 500 652 Q 650 648, 800 654 Q 950 650, 1100 656 L 1200 653 L 1200 632 Q 1050 636, 900 632 Q 750 628, 600 631 Q 450 626, 300 630 Q 150 625, 0 629 Z" fill="#F0EBD8" opacity="0.7"/>
<path d="M 0 660 Q 100 650, 200 655 Q 350 645, 500 652 Q 650 648, 800 654 Q 950 650, 1100 656 L 1200 653 L 1200 632 Q 1050 636, 900 632 Q 750 628, 600 631 Q 450 626, 300 630 Q 150 625, 0 629 Z" fill="url(#sandStipple)"/>

<!-- ======== LAND ======== -->
<path d="M 0 629 Q 150 625, 300 630 Q 450 626, 600 631 Q 750 628, 900 632 Q 1050 636, 1200 632 L 1200 0 L 0 0 Z" fill="#F5F1E6" opacity="0.4"/>
<path d="M 0 629 Q 150 625, 300 630 Q 450 626, 600 631 Q 750 628, 900 632 Q 1050 636, 1200 632 L 1200 0 L 0 0 Z" fill="url(#sandStipple)" opacity="0.5"/>

<!-- ======== TOPO CONTOURS ======== -->
<g opacity="0.2" stroke="#BFBFBF" fill="none" stroke-width="0.05">
  <path d="M 0 610 Q 200 604, 400 608 Q 600 602, 800 606 Q 1000 603, 1200 607"/>
  <path d="M 0 590 Q 200 583, 400 587 Q 600 581, 800 585 Q 1000 582, 1200 586"/>
  <path d="M 0 568 Q 200 560, 400 564 Q 600 558, 800 562 Q 1000 559, 1200 563"/>
  <path d="M 0 545 Q 200 536, 400 540 Q 600 534, 800 538 Q 1000 535, 1200 539"/>
  <path d="M 0 520 Q 200 510, 400 514 Q 600 508, 800 512 Q 1000 509, 1200 513"/>
  <path d="M 0 495 Q 200 484, 400 488 Q 600 482, 800 486 Q 1000 483, 1200 487"/>
  <path d="M 0 468 Q 200 456, 400 460 Q 600 454, 800 458 Q 1000 455, 1200 459"/>
  <path d="M 0 440 Q 200 428, 400 432 Q 600 426, 800 430 Q 1000 427, 1200 431"/>
  <path d="M 0 410 Q 200 398, 400 402 Q 600 396, 800 400 Q 1000 397, 1200 401"/>
  <path d="M 0 378 Q 200 368, 400 372 Q 600 366, 800 370 Q 1000 367, 1200 371"/>
  <path d="M 0 345 Q 200 336, 400 340 Q 600 334, 800 338 Q 1000 335, 1200 339"/>
  <path d="M 0 310 Q 200 302, 400 306 Q 600 300, 800 304 Q 1000 301, 1200 305"/>
  <path d="M 0 275 Q 200 268, 400 272 Q 600 266, 800 270 Q 1000 267, 1200 271"/>
</g>
<g opacity="0.25" stroke="#ABABAB" fill="none" stroke-width="0.12">
  <path d="M 0 610 Q 200 604, 400 608 Q 600 602, 800 606 Q 1000 603, 1200 607"/>
  <path d="M 0 495 Q 200 484, 400 488 Q 600 482, 800 486 Q 1000 483, 1200 487"/>
  <path d="M 0 378 Q 200 368, 400 372 Q 600 366, 800 370 Q 1000 367, 1200 371"/>
  <path d="M 0 275 Q 200 268, 400 272 Q 600 266, 800 270 Q 1000 267, 1200 271"/>
</g>

<!-- Spot elevations -->
<g font-family="monospace" font-size="7" fill="#999">
  <text x="180" y="628">+2.0</text>
  <text x="450" y="618">+4.0</text>
  <text x="350" y="588">+8.0</text>
  <text x="600" y="572">+12.0</text>
  <text x="500" y="500">+22.0</text>
  <text x="300" y="440">+35.0</text>
  <text x="700" y="410">+40.0</text>
  <text x="400" y="340">+55.0</text>
  <text x="600" y="290">+70.0</text>
</g>

<!-- ======== KAHOMA STREAM ======== -->
<path d="M 548 120 Q 545 180, 540 230 Q 535 290, 538 330 Q 542 370, 545 410 Q 548 450, 550 490 Q 553 530, 555 570 Q 558 600, 560 632 Q 562 650, 565 665" fill="none" stroke="#88C4D2" stroke-width="2.5" opacity="0.45"/>
<path d="M 548 120 Q 545 180, 540 230 Q 535 290, 538 330 Q 542 370, 545 410 Q 548 450, 550 490 Q 553 530, 555 570 Q 558 600, 560 632 Q 562 650, 565 665" fill="none" stroke="#78C4D4" stroke-width="1" opacity="0.6"/>
<path d="M 538 120 Q 535 180, 530 230 Q 525 290, 528 330 Q 532 370, 535 410 Q 538 450, 540 490 Q 543 530, 545 570 Q 548 600, 550 632 Q 552 650, 555 665 L 575 665 Q 572 650, 570 632 Q 568 600, 565 570 Q 563 530, 560 490 Q 558 450, 555 410 Q 552 370, 548 330 Q 545 290, 550 230 Q 555 180, 558 120 Z" fill="#88C4D2" opacity="0.08"/>

<!-- ======== STREETS ======== -->
<!-- Front Street -->
<path d="M 20 623 Q 150 618, 300 621 Q 450 616, 540 620 L 570 621 Q 700 617, 850 620 Q 1000 616, 1150 619 L 1200 618" fill="none" stroke="#1a1a1a" stroke-width="0.45" opacity="0.85"/>
<path d="M 20 620 Q 150 615, 300 618 Q 450 613, 540 617 L 570 618 Q 700 614, 850 617 Q 1000 613, 1150 616 L 1200 615 L 1200 622 Q 1150 623, 1000 620 Q 850 624, 700 621 L 570 625 L 540 624 Q 450 620, 300 625 Q 150 622, 20 627 Z" fill="#F5F1E6" opacity="0.25"/>

<!-- Wainee Street -->
<path d="M 50 594 Q 200 588, 350 591 Q 500 586, 530 589 L 575 590 Q 700 586, 850 589 Q 1000 585, 1150 588 L 1200 587" fill="none" stroke="#1a1a1a" stroke-width="0.4" opacity="0.75"/>

<!-- Highway 30 -->
<path d="M 0 430 Q 150 420, 300 424 Q 500 416, 700 420 Q 900 414, 1100 418 L 1200 416" fill="none" stroke="#1a1a1a" stroke-width="0.55" opacity="0.85"/>
<path d="M 0 426 Q 150 416, 300 420 Q 500 412, 700 416 Q 900 410, 1100 414 L 1200 412 L 1200 422 Q 1100 424, 900 420 Q 700 426, 500 422 Q 300 430, 150 426 L 0 436 Z" fill="#EDEAD8" opacity="0.2"/>

<!-- Lahaina Luna Ave -->
<path d="M 380 425 Q 385 460, 388 490 Q 390 520, 392 556 Q 394 580, 396 591 Q 398 608, 400 621" fill="none" stroke="#1a1a1a" stroke-width="0.4" opacity="0.75"/>

<!-- Cross streets -->
<g stroke="#555" stroke-width="0.2" opacity="0.5" fill="none">
  <line x1="180" y1="425" x2="175" y2="623"/><line x1="280" y1="423" x2="275" y2="622"/>
  <line x1="450" y1="419" x2="445" y2="618"/><line x1="650" y1="418" x2="645" y2="618"/>
  <line x1="750" y1="416" x2="745" y2="619"/><line x1="870" y1="415" x2="865" y2="620"/>
  <line x1="980" y1="414" x2="975" y2="618"/><line x1="1080" y1="417" x2="1075" y2="619"/>
</g>
<g stroke="#888" stroke-width="0.12" opacity="0.4" fill="none">
  <line x1="210" y1="594" x2="215" y2="623"/><line x1="320" y1="591" x2="318" y2="621"/>
  <line x1="480" y1="589" x2="478" y2="619"/><line x1="620" y1="589" x2="618" y2="618"/>
  <line x1="710" y1="588" x2="708" y2="619"/><line x1="810" y1="589" x2="808" y2="620"/>
  <line x1="920" y1="587" x2="918" y2="618"/><line x1="1030" y1="587" x2="1028" y2="619"/>
</g>

<!-- Dead-ends -->
<g fill="none" stroke="#C44" stroke-width="0.3" opacity="0.3">
  <line x1="208" y1="623" x2="212" y2="638"/><circle cx="212" cy="640" r="1.8"/>
  <line x1="615" y1="618" x2="612" y2="634"/><circle cx="612" cy="636" r="1.8"/>
  <line x1="920" y1="425" x2="925" y2="448"/><circle cx="925" cy="450" r="1.8"/>
</g>

<!-- ======== BUILDINGS ======== -->
<!-- Coastal commercial -->
<g fill="white" stroke="#1a1a1a" stroke-width="0.35" opacity="0.9">
  <rect x="80" y="624" width="18" height="10" rx="0.3"/><rect x="102" y="625" width="14" height="8" rx="0.3"/>
  <rect x="120" y="624" width="22" height="11" rx="0.3"/><rect x="146" y="625" width="16" height="9" rx="0.3"/>
  <rect x="166" y="624" width="20" height="10" rx="0.3"/><rect x="190" y="625" width="12" height="8" rx="0.3"/>
  <rect x="250" y="623" width="24" height="12" rx="0.3"/><rect x="278" y="624" width="14" height="9" rx="0.3"/>
  <rect x="296" y="623" width="18" height="11" rx="0.3"/><rect x="318" y="624" width="20" height="10" rx="0.3"/>
  <rect x="342" y="624" width="14" height="8" rx="0.3"/><rect x="360" y="623" width="22" height="11" rx="0.3"/>
  <rect x="590" y="622" width="20" height="10" rx="0.3"/><rect x="614" y="623" width="16" height="9" rx="0.3"/>
  <rect x="634" y="622" width="24" height="11" rx="0.3"/><rect x="662" y="623" width="14" height="8" rx="0.3"/>
  <rect x="680" y="622" width="18" height="10" rx="0.3"/><rect x="702" y="623" width="22" height="11" rx="0.3"/>
  <rect x="728" y="622" width="16" height="9" rx="0.3"/><rect x="748" y="623" width="20" height="10" rx="0.3"/>
  <rect x="772" y="622" width="14" height="8" rx="0.3"/><rect x="790" y="623" width="24" height="11" rx="0.3"/>
  <rect x="818" y="622" width="18" height="10" rx="0.3"/><rect x="840" y="623" width="16" height="9" rx="0.3"/>
  <rect x="860" y="622" width="22" height="11" rx="0.3"/><rect x="886" y="623" width="14" height="8" rx="0.3"/>
  <rect x="904" y="622" width="20" height="10" rx="0.3"/><rect x="928" y="623" width="18" height="9" rx="0.3"/>
  <rect x="950" y="622" width="22" height="11" rx="0.3"/><rect x="976" y="623" width="16" height="8" rx="0.3"/>
  <rect x="996" y="622" width="20" height="10" rx="0.3"/><rect x="1020" y="623" width="14" height="9" rx="0.3"/>
  <rect x="1038" y="622" width="24" height="11" rx="0.3"/><rect x="1066" y="623" width="18" height="8" rx="0.3"/>
</g>

<!-- Residential between Wainee & Front -->
<g fill="white" stroke="#1a1a1a" stroke-width="0.3" opacity="0.85">
  <rect x="90" y="596" width="12" height="14" rx="0.3"/><rect x="108" y="597" width="16" height="12" rx="0.3"/>
  <rect x="130" y="596" width="10" height="13" rx="0.3"/><rect x="148" y="597" width="18" height="12" rx="0.3"/>
  <rect x="172" y="596" width="14" height="14" rx="0.3"/><rect x="192" y="597" width="12" height="12" rx="0.3"/>
  <rect x="210" y="596" width="16" height="13" rx="0.3"/><rect x="232" y="597" width="10" height="12" rx="0.3"/>
  <rect x="248" y="596" width="18" height="14" rx="0.3"/><rect x="272" y="597" width="14" height="12" rx="0.3"/>
  <rect x="292" y="596" width="12" height="13" rx="0.3"/><rect x="310" y="597" width="16" height="12" rx="0.3"/>
  <rect x="332" y="596" width="20" height="14" rx="0.3"/><rect x="358" y="597" width="14" height="12" rx="0.3"/>
  <rect x="590" y="594" width="14" height="14" rx="0.3"/><rect x="610" y="595" width="18" height="12" rx="0.3"/>
  <rect x="634" y="594" width="12" height="13" rx="0.3"/><rect x="652" y="595" width="16" height="12" rx="0.3"/>
  <rect x="674" y="594" width="20" height="14" rx="0.3"/><rect x="700" y="595" width="14" height="12" rx="0.3"/>
  <rect x="720" y="594" width="12" height="13" rx="0.3"/><rect x="738" y="595" width="18" height="12" rx="0.3"/>
  <rect x="762" y="594" width="16" height="14" rx="0.3"/><rect x="784" y="595" width="14" height="12" rx="0.3"/>
  <rect x="804" y="594" width="20" height="13" rx="0.3"/><rect x="830" y="595" width="12" height="12" rx="0.3"/>
  <rect x="848" y="594" width="16" height="14" rx="0.3"/><rect x="870" y="595" width="14" height="12" rx="0.3"/>
  <rect x="890" y="594" width="18" height="13" rx="0.3"/><rect x="914" y="595" width="12" height="12" rx="0.3"/>
  <rect x="932" y="594" width="20" height="14" rx="0.3"/><rect x="958" y="595" width="16" height="12" rx="0.3"/>
  <rect x="980" y="594" width="14" height="13" rx="0.3"/><rect x="1000" y="595" width="18" height="12" rx="0.3"/>
  <rect x="1024" y="594" width="12" height="14" rx="0.3"/><rect x="1042" y="595" width="16" height="12" rx="0.3"/>
  <rect x="1064" y="594" width="20" height="13" rx="0.3"/>
</g>

<!-- Dispersed residential -->
<g fill="white" stroke="#1a1a1a" stroke-width="0.25" opacity="0.8">
  <rect x="100" y="450" width="16" height="20" rx="0.3"/><rect x="125" y="460" width="12" height="16" rx="0.3"/>
  <rect x="150" y="445" width="20" height="22" rx="0.3"/><rect x="180" y="455" width="14" height="18" rx="0.3"/>
  <rect x="210" y="448" width="18" height="20" rx="0.3"/><rect x="240" y="458" width="12" height="16" rx="0.3"/>
  <rect x="260" y="442" width="22" height="24" rx="0.3"/><rect x="290" y="452" width="16" height="18" rx="0.3"/>
  <rect x="320" y="446" width="14" height="20" rx="0.3"/><rect x="350" y="456" width="18" height="16" rx="0.3"/>
  <rect x="400" y="450" width="20" height="22" rx="0.3"/><rect x="430" y="440" width="16" height="24" rx="0.3"/>
  <rect x="460" y="455" width="14" height="18" rx="0.3"/><rect x="490" y="445" width="22" height="20" rx="0.3"/>
  <rect x="600" y="442" width="18" height="22" rx="0.3"/><rect x="630" y="450" width="14" height="18" rx="0.3"/>
  <rect x="660" y="438" width="20" height="24" rx="0.3"/><rect x="700" y="448" width="16" height="20" rx="0.3"/>
  <rect x="730" y="455" width="12" height="16" rx="0.3"/><rect x="760" y="440" width="22" height="22" rx="0.3"/>
  <rect x="800" y="450" width="18" height="18" rx="0.3"/><rect x="830" y="442" width="14" height="20" rx="0.3"/>
  <rect x="860" y="452" width="20" height="16" rx="0.3"/><rect x="900" y="438" width="16" height="24" rx="0.3"/>
  <rect x="930" y="448" width="22" height="20" rx="0.3"/><rect x="960" y="458" width="14" height="16" rx="0.3"/>
  <rect x="990" y="444" width="18" height="22" rx="0.3"/><rect x="1020" y="454" width="16" height="18" rx="0.3"/>
  <rect x="1050" y="440" width="20" height="24" rx="0.3"/>
  <rect x="120" y="500" width="14" height="16" rx="0.3"/><rect x="160" y="495" width="18" height="20" rx="0.3"/>
  <rect x="200" y="505" width="12" height="14" rx="0.3"/><rect x="250" y="498" width="20" height="18" rx="0.3"/>
  <rect x="310" y="502" width="16" height="16" rx="0.3"/><rect x="370" y="495" width="14" height="20" rx="0.3"/>
  <rect x="420" y="500" width="18" height="16" rx="0.3"/><rect x="480" y="498" width="16" height="18" rx="0.3"/>
  <rect x="620" y="495" width="14" height="18" rx="0.3"/><rect x="670" y="500" width="18" height="16" rx="0.3"/>
  <rect x="720" y="496" width="20" height="18" rx="0.3"/><rect x="780" y="502" width="16" height="14" rx="0.3"/>
  <rect x="840" y="496" width="14" height="18" rx="0.3"/><rect x="900" y="500" width="22" height="16" rx="0.3"/>
  <rect x="950" y="495" width="18" height="20" rx="0.3"/><rect x="1010" y="502" width="14" height="16" rx="0.3"/>
  <rect x="1060" y="496" width="20" height="18" rx="0.3"/>
</g>

<!-- Upland sparse -->
<g fill="white" stroke="#1a1a1a" stroke-width="0.2" opacity="0.65">
  <rect x="200" y="370" width="22" height="18" rx="0.3"/><rect x="280" y="360" width="16" height="22" rx="0.3"/>
  <rect x="360" y="375" width="18" height="16" rx="0.3"/><rect x="450" y="365" width="24" height="20" rx="0.3"/>
  <rect x="620" y="370" width="20" height="18" rx="0.3"/><rect x="720" y="362" width="16" height="22" rx="0.3"/>
  <rect x="830" y="372" width="22" height="16" rx="0.3"/><rect x="940" y="366" width="18" height="20" rx="0.3"/>
  <rect x="1050" y="370" width="24" height="18" rx="0.3"/>
</g>

<!-- ======== LANDMARKS ======== -->
<!-- Banyan Tree -->
<circle cx="430" cy="628" r="14" fill="#7A8B5D" opacity="0.3" stroke="#5A6B40" stroke-width="0.3"/>
<circle cx="430" cy="628" r="10" fill="#6B7C50" opacity="0.25"/>
<circle cx="430" cy="628" r="6" fill="#5A6B40" opacity="0.2"/>
<circle cx="430" cy="628" r="2" fill="#4A5B30" opacity="0.4"/>

<!-- Harbor -->
<path d="M 460 648 L 460 668 L 500 668 L 500 653 L 480 648 Z" fill="#A0D9E2" opacity="0.35" stroke="#1a1a1a" stroke-width="0.4"/>
<line x1="470" y1="653" x2="470" y2="666" stroke="#1a1a1a" stroke-width="0.35"/>
<line x1="480" y1="650" x2="480" y2="666" stroke="#1a1a1a" stroke-width="0.35"/>
<line x1="490" y1="654" x2="490" y2="666" stroke="#1a1a1a" stroke-width="0.35"/>

<!-- Elementary School -->
<rect x="210" y="626" width="30" height="18" fill="white" stroke="#1a1a1a" stroke-width="0.45" rx="0.5"/>
<line x1="210" y1="635" x2="240" y2="635" stroke="#1a1a1a" stroke-width="0.15"/>

<!-- Historic Districts -->
<rect x="65" y="580" width="330" height="68" fill="none" stroke="#8B6914" stroke-width="0.3" stroke-dasharray="3,2" opacity="0.35" rx="2"/>
<rect x="580" y="580" width="510" height="68" fill="none" stroke="#8B6914" stroke-width="0.3" stroke-dasharray="3,2" opacity="0.35" rx="2"/>

<!-- ======== VEGETATION ======== -->
<g opacity="0.35">
  <ellipse cx="95" cy="620" rx="3" ry="5" fill="#7A8B5D" transform="rotate(-5, 95, 620)"/>
  <ellipse cx="165" cy="618" rx="3.5" ry="5.5" fill="#8B9A6B" transform="rotate(3, 165, 618)"/>
  <ellipse cx="300" cy="619" rx="3" ry="6" fill="#6B7C50" transform="rotate(-2, 300, 619)"/>
  <ellipse cx="510" cy="620" rx="3.5" ry="5" fill="#7A8B5D" transform="rotate(4, 510, 620)"/>
  <ellipse cx="680" cy="618" rx="3" ry="5.5" fill="#8B9A6B" transform="rotate(-3, 680, 618)"/>
  <ellipse cx="820" cy="619" rx="3.5" ry="6" fill="#6B7C50" transform="rotate(2, 820, 619)"/>
  <ellipse cx="960" cy="618" rx="3" ry="5" fill="#7A8B5D" transform="rotate(-4, 960, 618)"/>
  <ellipse cx="1100" cy="619" rx="3.5" ry="5.5" fill="#8B9A6B" transform="rotate(1, 1100, 619)"/>
</g>
<g opacity="0.3">
  <circle cx="140" cy="480" r="8" fill="#7A8B5D"/><circle cx="230" cy="475" r="6" fill="#8B9A6B"/>
  <circle cx="340" cy="490" r="7" fill="#6B7C50"/><circle cx="470" cy="478" r="9" fill="#7A8B5D"/>
  <circle cx="640" cy="485" r="6.5" fill="#8B9A6B"/><circle cx="780" cy="480" r="8" fill="#6B7C50"/>
  <circle cx="880" cy="488" r="7" fill="#7A8B5D"/><circle cx="1000" cy="475" r="6" fill="#8B9A6B"/>
</g>
<g opacity="0.35">
  <circle cx="535" cy="330" r="5" fill="#6B7C50"/><circle cx="542" cy="370" r="6" fill="#7A8B5D"/>
  <circle cx="548" cy="410" r="5.5" fill="#8B9A6B"/><circle cx="540" cy="290" r="4.5" fill="#6B7C50"/>
  <circle cx="550" cy="450" r="6" fill="#7A8B5D"/><circle cx="553" cy="490" r="5" fill="#8B9A6B"/>
  <circle cx="556" cy="530" r="6.5" fill="#6B7C50"/><circle cx="558" cy="565" r="5" fill="#7A8B5D"/>
</g>
<g opacity="0.22">
  <circle cx="180" cy="350" r="10" fill="#8B9A6B"/><circle cx="320" cy="330" r="8" fill="#9AA87A"/>
  <circle cx="500" cy="310" r="11" fill="#7A8B5D"/><circle cx="700" cy="320" r="9" fill="#8B9A6B"/>
  <circle cx="900" cy="335" r="10" fill="#6B7C50"/><circle cx="1080" cy="340" r="8" fill="#9AA87A"/>
</g>
<g opacity="0.18">
  <circle cx="250" cy="290" r="7" fill="#A88B5A"/><circle cx="450" cy="270" r="9" fill="#B09860"/>
  <circle cx="650" cy="280" r="8" fill="#A88B5A"/><circle cx="850" cy="290" r="7" fill="#B09860"/>
  <circle cx="1050" cy="280" r="9" fill="#A88B5A"/>
</g>

<!-- =========================================================== -->
<!-- ALL LABELS — LARGE / LEGIBLE -->
<!-- =========================================================== -->

<!-- STREET NAMES -->
<text font-family="monospace" font-size="11" font-weight="bold" fill="#444" letter-spacing="3" x="55" y="635">FRONT STREET</text>
<text font-family="monospace" font-size="11" font-weight="bold" fill="#444" letter-spacing="3" x="55" y="591">WAINEE ST</text>
<text font-family="monospace" font-size="11" font-weight="bold" fill="#444" letter-spacing="3" x="55" y="427">HIGHWAY 30</text>
<text font-family="monospace" font-size="10" font-weight="bold" fill="#444" letter-spacing="2" x="383" y="500" transform="rotate(88, 383, 500)">LAHAINA LUNA</text>
<text font-family="sans-serif" font-size="11" font-weight="300" fill="#5BA8B5" letter-spacing="2" x="522" y="315">KAHOMA STREAM</text>

<!-- LANDMARK LABELS -->
<line x1="430" y1="612" x2="430" y2="598" stroke="#888" stroke-width="0.2"/>
<text font-family="sans-serif" font-size="11" font-weight="500" fill="#333" x="438" y="598">BANYAN TREE</text>

<line x1="480" y1="668" x2="480" y2="685" stroke="#888" stroke-width="0.2"/>
<text font-family="sans-serif" font-size="11" font-weight="500" fill="#333" x="452" y="696">LAHAINA HARBOR</text>

<line x1="225" y1="645" x2="225" y2="657" stroke="#888" stroke-width="0.2"/>
<text font-family="sans-serif" font-size="10" font-weight="500" fill="#333" x="195" y="668">ELEMENTARY SCHOOL</text>

<!-- HISTORIC DISTRICT LABELS -->
<text font-family="monospace" font-size="8" fill="#8B6914" opacity="0.65" x="130" y="577">HISTORIC DISTRICT NO. 1</text>
<text font-family="monospace" font-size="8" fill="#8B6914" opacity="0.65" x="740" y="577">HISTORIC DISTRICT NO. 2</text>

<!-- ZONE LABELS -->
<text font-family="monospace" font-size="10" fill="#5BA8B5" opacity="0.55" letter-spacing="2" x="556" y="700">LITTORAL ZONE</text>
<text font-family="monospace" font-size="9" fill="#777" opacity="0.5" x="72" y="650">COASTAL COMMERCIAL CORRIDOR</text>
<text font-family="monospace" font-size="9" fill="#777" opacity="0.5" x="638" y="585">RESIDENTIAL FABRIC</text>
<text font-family="monospace" font-size="9" fill="#777" opacity="0.5" x="638" y="435">DISPERSED RESIDENTIAL</text>
<text font-family="monospace" font-size="9" fill="#A88B5A" opacity="0.5" x="410" y="250">HINTERLAND / FIRE-PRONE DRY ZONE</text>

<!-- DIAGNOSTIC MARKERS -->
<text font-family="monospace" font-size="8" fill="#C44" opacity="0.4" x="192" y="654">DEAD END</text>
<text font-family="monospace" font-size="8" fill="#C44" opacity="0.4" x="592" y="649">DEAD END</text>
<text font-family="monospace" font-size="8" fill="#C44" opacity="0.4" x="905" y="459">DEAD END</text>
<text font-family="monospace" font-size="8" fill="#C44" opacity="0.35" x="350" y="616">CONGESTION</text>
<text font-family="monospace" font-size="8" fill="#C44" opacity="0.35" x="704" y="614">CONGESTION</text>

<!-- SLR -->
<path d="M 0 643 Q 200 636, 400 640 Q 600 634, 800 638 Q 1000 634, 1200 638" fill="none" stroke="#5BA8B5" stroke-width="0.2" stroke-dasharray="4,3" opacity="0.35"/>
<text font-family="monospace" font-size="8" fill="#5BA8B5" opacity="0.55" x="1045" y="636">SLR 2050 +1.1ft</text>
<path d="M 0 636 Q 200 629, 400 633 Q 600 627, 800 631 Q 1000 627, 1200 631" fill="none" stroke="#5BA8B5" stroke-width="0.15" stroke-dasharray="3,4" opacity="0.25"/>
<text font-family="monospace" font-size="8" fill="#5BA8B5" opacity="0.45" x="1045" y="627">SLR 2100 +3.2ft</text>

<!-- =========================================================== -->
<!-- PRINCIPLES — LEFT (LARGE) -->
<!-- =========================================================== -->
<g transform="translate(24, 30)">
  <text font-family="sans-serif" font-size="24" font-weight="bold" fill="#1a1a1a" letter-spacing="3">PRINCIPLES</text>
  <line x1="0" y1="10" x2="240" y2="10" stroke="#1a1a1a" stroke-width="0.7"/>
  
  <text font-family="sans-serif" font-size="14" font-weight="400" fill="#2a2a2a" font-style="italic" y="38">Residential can always rebuild</text>
  <text font-family="sans-serif" font-size="14" font-weight="400" fill="#2a2a2a" font-style="italic" y="58">NO displacement</text>
  
  <text font-family="sans-serif" font-size="14" font-weight="400" fill="#2a2a2a" font-style="italic" y="86">Space for everyone to return</text>
  <text font-family="sans-serif" font-size="14" font-weight="400" fill="#2a2a2a" font-style="italic" y="106">Public access</text>
  
  <text font-family="sans-serif" font-size="14" font-weight="400" fill="#2a2a2a" font-style="italic" y="134">Multi-functional spaces / infrastructures</text>
  
  <text font-family="sans-serif" font-size="14" font-weight="400" fill="#2a2a2a" font-style="italic" y="162">Buffer edges of the town</text>
  <text font-family="sans-serif" font-size="14" font-weight="400" fill="#2a2a2a" font-style="italic" y="182">Preserve cultural heritage</text>
</g>

<!-- =========================================================== -->
<!-- ACTIONS — RIGHT (LARGE) -->
<!-- =========================================================== -->
<g transform="translate(826, 30)">
  <text font-family="sans-serif" font-size="24" font-weight="bold" fill="#1a1a1a" letter-spacing="3">ACTIONS</text>
  <line x1="0" y1="10" x2="360" y2="10" stroke="#1a1a1a" stroke-width="0.7"/>
  
  <text font-family="sans-serif" font-size="13" font-weight="300" fill="#333" y="36">Allow adaptation in place</text>
  <text font-family="sans-serif" font-size="13" font-weight="300" fill="#333" y="56">Zoning overlays for prioritized rebuilding</text>
  <text font-family="sans-serif" font-size="13" font-weight="300" fill="#333" y="76">Flexible housing prototypes for rapid reconstruction</text>
  <text font-family="sans-serif" font-size="13" font-weight="300" fill="#333" y="96">Pedestrian-friendly networks with public space access</text>
  <text font-family="sans-serif" font-size="13" font-weight="300" fill="#333" y="116">Community-driven housing models</text>
  <text font-family="sans-serif" font-size="13" font-weight="300" fill="#333" y="136">Green buffers to blend town and landscape</text>
  <text font-family="sans-serif" font-size="13" font-weight="300" fill="#333" y="156">Local materials and architectural styles</text>
  <text font-family="sans-serif" font-size="13" font-weight="300" fill="#333" y="176">Dual-purpose infrastructure</text>
</g>

<!-- Connection lines -->
<g stroke="#1a1a1a" stroke-width="0.15" fill="none" opacity="0.2">
  <path d="M 24 218 L 24 620 Q 24 630, 44 630"/>
  <path d="M 200 218 L 200 430"/>
</g>
<g stroke="#6B7C50" stroke-width="0.12" fill="none" opacity="0.2" stroke-dasharray="2,2">
  <path d="M 950 165 L 950 280"/>
  <path d="M 900 165 L 555 330"/>
</g>

<!-- =========================================================== -->
<!-- TITLE BLOCK -->
<!-- =========================================================== -->
<g transform="translate(24, 828)">
  <line x1="0" y1="0" x2="520" y2="0" stroke="#1a1a1a" stroke-width="0.5"/>
  <text font-family="sans-serif" font-size="22" font-weight="bold" fill="#1a1a1a" y="24">LAHAINA, MAUI — PRE-FIRE CONDITIONS</text>
  <text font-family="sans-serif" font-size="13" font-weight="500" fill="#333" letter-spacing="1" y="42">Design Principles &amp; Actions / Ecological Systems Analysis</text>
  <text font-family="monospace" font-size="8" fill="#888" y="56">REBUILDING POST-DISASTERS: LAHAINA · M.ARCH THESIS · TULANE UNIVERSITY SCHOOL OF ARCHITECTURE</text>
  <text font-family="monospace" font-size="8" fill="#888" y="68">STUDIO: NEW ORLEANS PUBLIC SPACE PROJECT · DIRECTORS: IÑAKI ALDAY / SEAN FOWLER</text>
</g>

<!-- Scale bar -->
<g transform="translate(1020, 862)">
  <line x1="0" y1="0" x2="120" y2="0" stroke="#1a1a1a" stroke-width="0.4"/>
  <line x1="0" y1="-3" x2="0" y2="3" stroke="#1a1a1a" stroke-width="0.3"/>
  <line x1="60" y1="-3" x2="60" y2="3" stroke="#1a1a1a" stroke-width="0.3"/>
  <line x1="120" y1="-3" x2="120" y2="3" stroke="#1a1a1a" stroke-width="0.3"/>
  <text font-family="monospace" font-size="8" fill="#888" y="13">0</text>
  <text font-family="monospace" font-size="8" fill="#888" x="46" y="13">250ft</text>
  <text font-family="monospace" font-size="8" fill="#888" x="104" y="13">500ft</text>
</g>

<!-- North arrow -->
<g transform="translate(1166, 862)">
  <line x1="0" y1="12" x2="0" y2="-12" stroke="#1a1a1a" stroke-width="0.4"/>
  <polygon points="0,-12 -3,-7 3,-7" fill="#1a1a1a"/>
  <text font-family="monospace" font-size="10" font-weight="bold" fill="#1a1a1a" x="-4" y="-18">N</text>
</g>

<!-- ======== EDGE FADES ======== -->
<rect width="1200" height="900" fill="url(#fadeRight)" pointer-events="none"/>
<rect width="1200" height="900" fill="url(#fadeTop)" pointer-events="none"/>
<rect width="1200" height="900" fill="url(#fadeLeft)" pointer-events="none"/>
<rect width="1200" height="900" fill="url(#fadeBottom)" pointer-events="none"/>

</svg>
